<svg version="1" xmlns="http://www.w3.org/2000/svg" width="488" height="488" viewBox="0 0 366 366">
  <path d="M160.5 6C126.6 11.2 99.2 22.6 74 42.1c-34.9 27-58.2 65.5-66.7 110.2-2.5 13-2.5 48.4 0 61.4 13 68.4 61.1 121.7 127 140.7 17.3 5 25.6 6.1 48.7 6.1s31.4-1.1 48.7-6.1c59.5-17.2 105.5-63.2 122.7-122.7 5-17.3 6.1-25.6 6.1-48.7s-1.1-31.4-6.1-48.7C337.3 74.8 291.2 28.8 231.8 11.6 216 7.1 206.6 5.8 186 5.5c-10.7-.2-22.2 0-25.5.5zm36.4 6c69 6.1 125.7 50.3 148.5 115.8 23.8 68.5.1 146.8-58.1 191.5-73.6 56.4-179.7 43.6-238-28.8C-6.3 221.4.1 120.7 64.1 59.5c31.8-30.4 72-47 116.9-48.4 2.5 0 9.6.4 15.9.9z"/>
  <path d="M165.8 31.5c-.2.3.4 6.4 1.4 13.7 1 7.3 1.7 13.6 1.6 14-.2.4-3.6-5.1-7.7-12.2-7.2-12.8-9.1-15.4-9.1-12.8-.1 4.1 4.5 34.8 5.2 34.8 1.1 0 1-.9-.8-13.8-.8-6.2-1.4-12-1.2-12.8.2-.8 3.6 4.4 7.6 11.6 4 7.1 7.7 13 8.3 13 .5 0 .7-1.7.4-3.8-.3-2-1.4-9.9-2.5-17.5-1.8-13.5-2.2-15.2-3.2-14.2zM175.7 48.7c.3 9.8.7 18 .9 18.2 1.3 1.5 1.6-2.9.9-18.4-.4-9.6-1.1-17.5-1.6-17.5-.4 0-.5 8-.2 17.7zM182.6 42.7c-.3 6.5-.8 14.4-1 17.5-.2 3.2-.1 6 .4 6.3.4.3 1.1-3.3 1.5-8l.7-8.5h5.4c3 0 5.4-.5 5.4-1 0-.6-2.3-1-5-1-6.1 0-6.5-.7-5.6-9.3l.7-6.4 5.5.5c3.6.3 5.4.1 5.4-.7 0-.7-2.3-1.1-6.4-1.1h-6.4l-.6 11.7zM206.2 34.7c-3.3 2.6-8 25.9-6 30 2.5 5.3 10.6 5.6 13.1.5.8-1.5 2.2-6.8 3.1-11.8 2.8-15.6 2-19-4.4-20-2.6-.4-4.2-.1-5.8 1.3zm7.9 1.3c1.5.8 1.9 2.1 1.9 5.8-.1 6.1-3.4 21.7-5 23.7-2 2.4-6.7 1.9-8.6-1-1.5-2.3-1.5-3.2.5-13.7 1.2-6.2 2.8-12.2 3.6-13.5 1.7-2.5 4.4-2.9 7.6-1.3zM140.8 52.2l.3 16.3-8.7-13c-10.1-15.2-9.2-14-10-13.2-.6.6 8.9 32.3 10 33.5 1.8 1.7 1.1-1.7-2.3-12.6-2.1-6.7-3.5-12-3.1-11.7.4.2 3.8 5.2 7.6 10.9 3.8 5.8 7.3 10.6 7.7 10.6.4 0 .7-6.1.5-13.5-.2-7.4-.1-13.5.2-13.5.3 0 2.1 5.2 4 11.6 3.1 10.4 4.5 13.4 5.4 12.3.6-.7-10-33.3-10.9-33.6-.6-.2-.9 6-.7 15.9zM228.6 40.3c-2.1 1.5-9.5 22-9.6 26.4 0 6.5 8.9 9.8 12.9 4.7 2.2-2.7 9.1-22.6 9.1-26.1 0-4.6-8.3-8-12.4-5zm8.8 2.3c.9.8 1.6 2.4 1.6 3.5 0 3-6.9 22.1-8.7 24.1-3.1 3.5-9.3 1-9.3-3.7 0-2.5 5-17.7 7.4-22.3 1.3-2.5 2.3-3.2 4.6-3.2 1.6 0 3.6.7 4.4 1.6zM243.1 61.1c-4.6 8.8-8.2 16.2-8 16.3 1.7 1.5 7.4 3.6 9.7 3.6 3.8 0 6-2.6 11.6-13.6 6.6-13 6.2-16.6-2-20.7l-3-1.6-8.3 16zm13.6-10.5c1.8 1.4 3.3 3.1 3.3 3.9 0 2.6-10.1 21.4-12.6 23.4-2.1 1.6-3 1.8-5.5.9-1.7-.6-3.3-1.6-3.5-2.3-.5-1.3 13.2-28.5 14.3-28.5.4 0 2.1 1.1 4 2.6zM104.2 51c-3.5 3.3-2.8 7.4 3.2 18.5 5.8 10.8 9 14.1 12.8 13.2 7.8-2 8.1-7.2 1.3-20.2-2.7-5-5.7-10-6.8-11.3-2.6-2.8-7.6-2.9-10.5-.2zm10 2.8c1.2 1.6 4.3 7 6.7 12 3.9 7.9 4.3 9.4 3.3 11.6-1.5 3.4-5.7 4.4-8.4 2-2.7-2.5-11.8-20.7-11.8-23.8 0-5 6.6-6.1 10.2-1.8zM236.7 104.2c-11.2 12.8-28.8 35.5-31.4 40.4l-2.7 5.2 1.7 5.8 1.6 5.9-8.3 12.5c-4.7 6.9-9.8 14.4-11.6 16.8l-3.1 4.3-1.8-2.3c-1-1.3-6.2-8.8-11.6-16.7-9.4-13.7-9.8-14.5-8.7-17.5 3.1-9 2.2-17-3-27.6-3.7-7.7-15.4-19.8-23.8-24.7-6.6-3.8-13.6-5.9-17.3-4.9-11.4 2.8-4.5 36.5 10.7 51.9 7.2 7.3 14.5 11 22.1 11.3l6 .2 12.2 17.2 12.3 17.2-2.2 3.1c-14.6 21-23.9 31.9-37.4 43.8-13.7 12-15.1 14.3-13.5 21.3 1.6 6.9 2.4 7.6 9.1 7.6 9.3 0 10.9-2 19-23.6 2.2-5.8 5.6-13.4 7.6-16.7C169 224 182.2 204 182.9 204c.7 0 14.4 20.8 20 30.6 2.2 3.9 5.9 11.9 8.1 17.8 7.8 20.7 9.4 22.6 19.4 22.6 5.3 0 5.4 0 7-4 .9-2.2 1.6-5.8 1.6-8 0-4.5-1.4-6.1-19-22.1-8.9-8-19.9-21.1-30-35.6l-4.3-6.2 12.4-17.3 12.4-17.3 6.4-.5c5.9-.5 6.6-.8 9.8-4.5 5.9-6.8 30.7-47.9 30-49.8-.1-.5-7.4 9-16 21.2C232 143 224.6 153 224 153c-2.8 0-.6-4 13.3-24.2 17.5-25.4 17.1-24.8 16-24.8-.4 0-8 10.2-16.8 22.5-14.8 20.7-17.5 23.9-18.9 21.7-.2-.4 6.7-11.3 15.5-24.2 8.7-12.8 15.7-23.6 15.4-23.9-.4-.3-.9-.1-1.3.5s-7.8 11-16.6 23.2c-11 15.2-16.3 21.9-17.3 21.5-.8-.3-1.2-1.1-1-1.7.3-.6 6.5-9.9 13.9-20.6 15.8-22.9 17.2-25 16.5-25-.3 0-3 2.8-6 6.2zM65.1 259.6c-6.2 4.2-11 7.8-10.7 8.1.3.3 2.8-.9 5.7-2.8l5.2-3.3 1.9 2.7c2.8 3.9 7.8 3.7 11.2-.3 2.7-3.2 2.5-5.5-.7-10.1-1.3-1.7-2-1.4-12.6 5.7zm13.4-1.2c.8 2.5.6 3.1-1.8 5.2-3.5 3-4.8 3-7.7-.1-2.6-2.7-2.6-2.7 2.2-6.1 4.1-2.9 6-2.7 7.3 1zM291 259c1.6 3.3 3 6.2 3 6.5 0 .4-3.3.3-7.2-.1-4-.3-7-.3-6.6.1.4.4 4.1 1.1 8.2 1.5 6.4.6 8.1 1.2 12.6 4.5 2.8 2 5.4 3.4 5.8 3 .4-.3 0-1-.8-1.5-6.5-3.6-10.3-7.6-13.2-13.5-1.8-3.6-3.6-6.5-4-6.5-.5 0 .5 2.7 2.2 6zM73.2 271.6c-5.7 4.8-10.1 8.9-9.8 9.1.3.3 2.5-1.2 5.1-3.2 4.4-3.7 4.6-3.7 6.5-2 3 2.7 2.5 4.9-2.1 9-2.2 2-3.8 3.9-3.5 4.2.9 1 7.4-5.1 8.5-8 .7-1.9 1.7-2.7 3.4-2.7 3.1 0 6.7-3.9 6.7-7.3 0-1.4-1-3.7-2.2-5.1l-2.3-2.6-10.3 8.6zm13.8-.4c0 2-4.6 5.8-7 5.8-.9 0-2.5-.9-3.6-2.1-1.9-2.1-1.9-2.1 2.5-6.1l4.5-3.9 1.8 2.3c1 1.3 1.8 3.1 1.8 4z"/>
  <path d="M156 272.5v7.5l3.3-.1c3-.2 3-.2.5-.6-2.3-.4-2.8-.9-2.8-3.3s.5-2.9 2.8-3.3l2.7-.4-2.7-.2c-2.4-.1-2.8-.5-2.8-3s.5-3 2.8-3.4c2.5-.4 2.5-.4-.5-.6l-3.3-.1v7.5zM164.2 266.2c-1.9 1.9-1.4 4.6 1.3 6.4 2.6 1.7 3.3 4.8 1.3 6-.6.4-1.7-.1-2.5-1.1-1.1-1.6-1.3-1.6-1.3-.3 0 1.8 3.4 3.3 5 2.3 1.9-1.2 1.1-5.4-1.5-7.1-2.6-1.7-3.3-4.8-1.3-6 .6-.4 1.8.2 2.5 1.2 1.4 1.9 1.5 1.9 1.1-.1-.4-2.3-2.8-3.1-4.6-1.3zM171.8 265.7c1.2.2 3.2.2 4.5 0 1.2-.2.2-.4-2.3-.4s-3.5.2-2.2.4zM185.7 265.6c-.4.4-.7 1.4-.7 2.3 0 1.1.3 1 1.5-.5 1.3-1.6 1.6-1.7 2.6-.4.9 1.3 1 1.3.6 0-.4-1.6-2.9-2.5-4-1.4zM192.4 266.3c-.3.8-.4 4.1-.2 7.3.3 5 .6 5.9 2.2 5.9 1.1 0 2.1-.7 2.3-1.5.4-1.3.3-1.3-.6 0-1.8 2.6-3.2-.3-2.9-6 .3-5.3 2.1-7.8 3.2-4.3.4 1.5.5 1.5.3-.2-.3-2.3-3.5-3.3-4.3-1.2zM200 266.5c-.8 1-.9 1.5-.2 1.5.6 0 1.3 2.7 1.5 6.2.3 6.2.3 6.2.5-1.5.1-4.2 0-7.7-.2-7.7s-.9.7-1.6 1.5zM205.1 270c-1.3 2.3-2.1 4.4-1.8 4.6.3.3.8-.4 1.2-1.5.3-1.2 1.3-2.8 2.1-3.6.9-.8 1.4-2 1.2-2.6-.2-.6-1.4.8-2.7 3.1zM274.5 272c-3.4 3.5-4.5 1.7 9.3 13.9 8.6 7.7 12.6 9.5 4.7 2.2-2.5-2.3-4.5-4.6-4.5-5.1 0-1.1 4-4 5.7-4 .7 0 2.8 1.4 4.8 3.1 2 1.8 3.8 2.9 4.1 2.7.9-.9-6.6-6.8-8.7-6.8-1.1 0-2.3-1-2.9-2.4-1-2.8-5.6-6.6-7.9-6.6-1 0-3 1.4-4.6 3zm11 3.1c.8 2.3-1.2 6.9-2.9 6.9-.6 0-2.9-1.6-5.1-3.5l-4-3.5 2.8-2.5c2.6-2.3 3-2.4 5.7-1 1.6.8 3.2 2.4 3.5 3.6zM187.2 273.4c-3.1 4.5-2.9 6.6.6 6.5 2.3-.2 2.4-.2.5-.6-2.9-.5-2.9-1.6-.1-5.3 1.2-1.6 2-3.2 1.7-3.4-.2-.3-1.4 1-2.7 2.8zM82.6 283.6l-8.9 9.5 2.8 2.9c1.6 1.7 3.3 3 3.9 3 .5 0-.4-1.5-2.2-3.3l-3.2-3.3 3.8-3.7c2.1-2 4.2-3.7 4.7-3.7s2.3 1.2 3.9 2.7c3 2.7 3 2.7-.1-.7l-3.3-3.4 4.2-4.3 4.2-4.3 3.6 3.3 3.5 3.2-3.4-3.8c-1.9-2-3.7-3.7-4-3.6-.4 0-4.6 4.3-9.5 9.5zM267.1 280c-1.8 1.5-3.2 3.3-3 3.8.2.5 4.3 5 9 10l8.6 9 3.7-3c2-1.7 3.5-3.3 3.1-3.6-.3-.3-1.9.7-3.5 2.3l-3 2.9-4.3-4.3-4.2-4.2 3.4-2.9c1.9-1.6 3.2-3.2 3-3.5-.3-.2-1.8.9-3.4 2.5l-2.9 3-4.3-4.2-4.3-4.2 3.2-3.3c3.9-4 3.4-4.2-1.1-.3zM91.7 292c-4.3 5.6-7.7 10.5-7.5 11 .2.6 2.7-2.1 5.7-6 2.9-3.9 5.7-7.2 6.1-7.5.5-.3-.9 3.7-3 9-2.1 5.2-3.5 9.5-3.1 9.5.5 0 2.8-1.5 5.2-3.3 12.5-9.4 12.7-9.3 4.6 1-2.7 3.5-4.4 6.3-3.9 6.3 1.4 0 17.2-20.4 16.2-20.8-.5-.2-4.9 2.6-9.8 6.2-4.9 3.7-9.2 6.6-9.5 6.6-.3 0 .6-2.8 2-6.3 5.4-13.2 6.2-15.7 5.5-15.7-.4 0-4.2 4.5-8.5 10zM261.8 284.5c-.3.4 1.4 5.2 3.8 10.7 2.4 5.6 4.2 10.3 4 10.5-.2.2-4.3-2.8-9-6.8-4.8-3.9-9-6.8-9.4-6.5-.3.4-.2 1 .4 1.4.5.4 5.4 4.2 10.7 8.6 5.4 4.3 10 7.6 10.3 7.4.2-.3-1.9-6.2-4.9-13.2-2.9-7-5.6-12.4-5.9-12.1zM114.3 294.2c-3.1 3.9-13.4 21.1-12.9 21.5.5.5 13.1-18.3 14.3-21.2.6-1.8-.1-1.9-1.4-.3zM249.2 296.2c.8 1.3 4.1 6.5 7.3 11.5 3.2 5.1 6.3 9.3 6.8 9.3s.3-1-.5-2.3c-.8-1.2-4-6.4-7.2-11.5-3.2-5-6.3-9.2-6.8-9.2-.6 0-.4 1 .4 2.2zM117.3 296.2c-.5.7-3.1 5.3-5.7 10.1-3.5 6.5-4.6 9.5-4.2 11.3.8 3.2 4.6 5 7.4 3.5 2.2-1.2 12.6-19.5 12-21.2-.2-.6-3 3.7-6.1 9.5-5.6 10.2-6.7 11.3-10.1 10-2.7-1-1.8-4.8 3.5-14.4 2.8-5 4.9-9.4 4.6-9.6-.2-.3-.9.1-1.4.8zM238 300.6c0 .6 11.6 22.1 12.6 23.2.1.2 2.3-.8 4.9-2.3 5.6-3.3 5.3-4.5-.4-1.6l-4 2.1-5.6-10.5c-5.1-9.4-7.5-13-7.5-10.9zM124.6 313.5c-2.7 6.9-4.6 12.9-4.2 13.2.3.3.9-.3 1.3-1.3s2-5.1 3.5-8.9l2.8-7-.6 9.7c-.3 5.4-.2 9.8.3 9.8.4 0 3.2-3.4 6.2-7.5s5.6-7.3 5.8-7.2c.2.2-1.2 4.3-3.1 9-1.9 4.8-3 8.7-2.6 8.7 1.1 0 10.4-23.9 9.6-24.7-.3-.3-.8-.4-.9-.2-.2.2-3.4 4.4-7.2 9.4l-6.7 9 .6-10.5c.4-5.8.9-11.3 1.2-12.3.3-.9.2-1.7-.3-1.7-.4 0-3 5.6-5.7 12.5zM230.8 303l-3.7 2 3.6 8.3c1.9 4.5 4.2 9.9 5.1 11.9 1.7 4.3 3.2 4.6 8.2 1.7 3.5-2 3-2.1-3.6-.3-1.7.4-2.4-.3-4.2-4.3l-2.1-4.8 4.2-1.9c2.3-1.1 3.7-2.1 3-2.3-.6-.2-2.5.3-4.1 1.1-1.6.8-3.3 1.2-3.6.8-.6-.6-4.6-9.1-4.6-9.7 0-.2 1.6-.9 3.5-1.5s3.5-1.6 3.5-2.1c0-1.3-1-1.1-5.2 1.1zM216.8 307.7c-2.4.6-2.4.8 1.9 14.4 3.1 10.3 3.9 11.9 5.7 11.9 3.7 0 6.6-2.8 6.6-6.3 0-3.8-3.5-15.3-5.6-18.5-1.4-2.1-4.3-2.7-8.6-1.5zm6.2 1.3c1.8 1 7 15.2 7 19.2 0 1.9-1.8 3.5-4.4 4-1.6.2-2.5-1.5-5.7-11l-3.8-11.3 2.2-.9c2.9-1.1 2.6-1.1 4.7 0zM152.1 322.3c-1.3 6.9-2.1 13.1-1.9 13.9.3.7 1-1.7 1.7-5.4l1.3-6.7 4.7.5c3.3.3 4.1.2 2.6-.5-1.1-.5-3.1-1-4.4-1-2.3-.1-2.3-.3-1.7-5.3.4-2.8.9-5.5 1.2-5.9.2-.4 2.1-.3 4.1.1 2.1.5 3.9.7 4.2.4.8-.8-.3-1.2-5-1.9l-4.5-.7-2.3 12.5zM167.6 313.5c-1.6 1.7-2.2 4.3-3.1 14.5-.6 7.8 1 11 5.4 11 4.6 0 5.8-2.5 6.6-13.3.7-8.6.5-10-1-11.7-2.2-2.4-5.8-2.6-7.9-.5zm7.3 2.3c1.3 2.4-.2 18.7-1.9 20.7-1.6 1.9-4.4 1.9-6 0-1.6-1.9-.6-19 1.1-21.1 1.6-2 5.7-1.7 6.8.4zM194.3 317.7c.4 3.2 1.1 9.3 1.8 13.5 1.1 7.5 1.3 7.8 3.8 7.8 1.5 0 3.7-.7 5-1.6 2.2-1.6 2.3-2.1 1.7-9.5-.4-4.4-1.2-9.6-1.9-11.6-1.1-3.6-1.4-3.8-6.1-4.1l-4.9-.3.6 5.8zm8-3.3c1.8 1.9 4 18.2 2.7 20.6-1.1 2.1-6 3.3-6.5 1.6-.9-2.7-3.3-22-2.9-22.8.8-1.3 5.1-.9 6.7.6zM181 314.9c-.5 1.1-1 6.3-1 11.5 0 8.3.3 9.9 2 11.6 2.6 2.6 5.5 2.5 8.1-.1 2-2 2.1-2.8 1.5-12.3-.4-5.5-1.2-10.6-1.8-11.3-1.7-2.1-7.6-1.6-8.8.6zm7.5.7c1.3 1.3 1.5 3.5 1.3 11.6-.3 9.3-.5 10.1-2.5 10.9-4.3 1.6-5.7-.9-6.1-11.3-.4-7.9-.1-9.7 1.3-11.1 2.1-2.1 3.9-2.2 6-.1z"/>
</svg>
